<svg xmlns="http://www.w3.org/2000/svg" xmlns:xlink="http://www.w3.org/1999/xlink" preserveAspectRatio="xMidYMid" width="1920" height="1530" viewBox="0 0 1920 1530">
  <defs>
    <style>
      .cls-1 {
        fill: #000;
        fill-rule: evenodd;
      }
    </style>
  </defs>
  <path d="M0.000,-0.000 C639.936,-0.000 1280.064,-0.000 1920.000,-0.000 C1920.000,413.959 1920.000,828.041 1920.000,1242.000 C1855.006,1242.000 1789.993,1242.000 1725.000,1242.000 C1676.966,1249.826 1623.454,1248.849 1571.000,1248.000 C1545.003,1248.000 1518.997,1248.000 1493.000,1248.000 C1461.003,1246.000 1428.997,1244.000 1397.000,1242.000 C1355.004,1236.667 1312.996,1231.333 1271.000,1226.000 C1192.341,1226.000 1113.659,1226.000 1035.000,1226.000 C990.511,1218.540 947.703,1215.467 899.000,1216.000 C899.000,1215.000 899.000,1214.000 899.000,1213.000 C921.402,1161.303 911.982,1076.890 893.000,1032.000 C884.077,1010.897 879.632,991.229 869.000,973.000 C826.207,899.630 702.308,813.502 572.000,842.000 C458.191,866.890 398.778,933.929 357.000,1032.000 C343.651,1063.336 330.743,1115.725 340.000,1162.000 C345.817,1191.078 355.564,1216.712 362.000,1242.000 C359.667,1242.000 357.333,1242.000 355.000,1242.000 C308.702,1223.519 269.095,1247.351 232.000,1254.000 C217.668,1254.000 203.332,1254.000 189.000,1254.000 C150.981,1254.006 110.780,1255.726 78.000,1249.000 C55.002,1247.667 31.998,1246.333 9.000,1245.000 C9.000,1244.667 9.000,1244.333 9.000,1244.000 C6.000,1244.667 3.000,1245.333 0.000,1246.000 C0.000,830.708 0.000,415.292 0.000,-0.000 Z" class="cls-1"/>
</svg>
